<?xml version="1.0" encoding="UTF-8" standalone="no"?>
<!DOCTYPE svg PUBLIC "-//W3C//DTD SVG 1.1//EN" "http://www.w3.org/Graphics/SVG/1.1/DTD/svg11.dtd">
<svg width="100%" height="100%" viewBox="0 0 994 994" version="1.1" xmlns="http://www.w3.org/2000/svg" xmlns:xlink="http://www.w3.org/1999/xlink" xml:space="preserve" xmlns:serif="http://www.serif.com/" style="fill-rule:evenodd;clip-rule:evenodd;stroke-linejoin:round;stroke-miterlimit:2;">
    <g transform="matrix(1,0,0,1,-533.81,-48.68)">
        <path d="M1363.94,657.51C1363.85,659.98 1363.68,662.51 1363.67,664.93L1363.67,856.44C1363.67,864.21 1364.47,863.21 1356.94,863.3L1336.76,863.53C1335,863.46 1333.23,863.34 1331.46,863.33L1305.46,863.33C1304.05,863.33 1302.63,863.28 1301.22,863.21C1301.22,863.21 1301.21,863.21 1301.21,863.21C1300.47,863.21 1299.86,862.601 1299.86,861.86C1299.86,861.86 1299.86,861.86 1299.86,861.86C1299.76,859.92 1299.71,857.97 1299.71,856.03L1299.71,437.03C1299.71,434.74 1300.06,432.42 1299.31,430.17C1299.37,425.17 1299.44,420.25 1299.47,415.28C1299.47,409.38 1299.07,409.72 1304.85,409.72L1386.12,409.72C1388.87,409.81 1389.21,409.95 1389.8,412.51C1392.8,425.28 1397.95,437.45 1400.01,450.46C1400.01,450.467 1400.01,450.475 1400.01,450.482C1400.01,451.381 1400.75,452.122 1401.65,452.122C1401.86,452.122 1402.07,452.08 1402.27,452C1404.68,451.422 1407.05,450.704 1409.38,449.85C1415.46,447.41 1421.49,444.85 1427.49,442.25C1429.62,441.32 1431.68,440.25 1434.09,440.61C1435.47,443.994 1435.47,447.786 1434.09,451.17C1431.39,453.205 1428.34,454.721 1425.09,455.64C1418.32,457.69 1412.09,461.18 1405.09,462.76C1404.31,462.864 1403.72,463.538 1403.72,464.326C1403.72,464.473 1403.74,464.619 1403.78,464.76C1404.26,467.19 1404.69,469.63 1405.36,472.01C1408.73,483.92 1412.36,495.76 1415.54,507.71C1421.64,530.42 1427.54,553.18 1433.49,575.93C1433.68,577.154 1434.1,578.329 1434.74,579.39C1434.94,580.39 1435.09,581.48 1435.36,582.5C1441.04,603.5 1446.87,624.5 1452.36,645.61C1454.95,655.55 1458.81,665.12 1460.83,675.21C1460.9,675.699 1461.33,676.066 1461.82,676.066C1461.88,676.066 1461.94,676.061 1462,676.05C1462.7,674.75 1462.36,673.32 1462.36,671.95L1462.36,435.76C1462.36,434.52 1462.36,433.28 1462.28,432.04C1462.28,432.027 1462.28,432.013 1462.28,431.999C1462.28,431.105 1461.55,430.369 1460.65,430.369C1460.64,430.369 1460.62,430.37 1460.61,430.37C1457.96,430.25 1455.31,430.16 1452.61,430.06C1453.79,428.16 1455.83,427.36 1457.61,426.23C1460.88,424.15 1462.61,421.37 1462.37,417.42C1462.26,415.66 1462.24,413.88 1462.25,412.12C1462.26,410.36 1462.67,409.86 1464.37,409.87C1466.67,409.87 1468.97,409.87 1471.25,410.06C1476.25,410.46 1480.25,408.43 1483.33,404.69C1489.22,397.64 1494.94,390.44 1499.33,382.31C1508.91,364.832 1513.63,345.101 1513,325.18C1513.31,324.363 1513.73,323.598 1514.27,322.91C1517.27,320 1519.39,316.35 1521.84,313C1523.54,317.37 1523.51,322 1523.84,326.59C1524.25,332.1 1523.5,337.59 1522.84,343.02C1521.86,351.652 1520.07,360.175 1517.52,368.48C1514.61,377.802 1510.27,386.614 1504.65,394.6C1501.99,398.37 1499.26,402.08 1496.56,405.81C1496.04,406.53 1495.56,407.24 1495.03,407.99C1494.5,408.74 1495.03,409.62 1496.13,409.65L1520.05,409.65C1521.29,409.65 1522.53,409.65 1523.76,409.77C1524.5,409.748 1525.13,410.331 1525.16,411.07C1525.25,412.66 1525.3,414.26 1525.3,415.85L1525.3,840.42C1525.14,845.029 1525.3,849.644 1525.79,854.23C1526.05,856.174 1525.92,858.151 1525.39,860.04C1524.81,862.23 1524.03,863.04 1521.75,863.2C1519.63,863.35 1517.5,863.28 1515.37,863.3C1509.71,863.38 1504.05,863.44 1498.37,863.51C1496.96,863.44 1495.55,863.3 1494.14,863.3L1458.53,863.3C1452.95,863.3 1452.34,862.79 1450.96,857.3C1450.83,856.78 1450.77,856.25 1450.63,855.74C1449.54,851.63 1448.49,847.51 1447.32,843.43C1445.72,837.81 1443.78,832.28 1442.41,826.6C1437.79,807.49 1432.47,788.6 1427.24,769.6C1415.24,726.24 1403.67,682.78 1391.98,639.34C1387.7,623.44 1383.48,607.52 1379.44,591.55C1375.58,576.27 1370.36,561.35 1367.31,545.86C1366.87,544.146 1366.28,542.473 1365.55,540.86C1365.31,540.23 1365.02,539.45 1364.11,539.68C1363.47,539.85 1363.66,540.5 1363.64,540.98L1363.64,651.64C1363.68,653.62 1363.85,655.56 1363.94,657.51Z" style="fill:rgb(237,67,81);fill-rule:nonzero;"/>
    </g>
    <g transform="matrix(1,0,0,1,-533.81,-48.68)">
        <path d="M1272.84,475C1269.65,475.057 1266.46,474.792 1263.32,474.21C1262,473.98 1261.32,474.65 1261.49,476.01C1262.25,481.27 1262.95,486.54 1263.91,491.77C1266.52,505.354 1267.72,519.17 1267.49,533C1267.24,544 1267.49,555 1267.62,566C1267.76,576.3 1267.36,586.58 1266.55,596.83C1265.42,611.01 1262.97,624.93 1257.61,638.23C1250.47,656.604 1236.74,671.682 1219.12,680.52C1217.87,681.17 1216.66,681.9 1215.43,682.6C1214.91,682.7 1214.24,682.65 1214.53,683.53L1214.53,683.47C1212.71,682.81 1211.07,683.59 1209.43,684.14C1206.76,685.05 1204.09,685.97 1201.43,686.99C1197.62,688.387 1193.69,689.425 1189.69,690.09C1179.24,692.02 1168.69,692.58 1158.1,692.89C1149.99,693.14 1141.86,692.96 1133.75,692.97L1129.51,692.97C1127.83,693.05 1127.34,693.5 1127.35,695.25C1127.35,701.43 1127.5,707.6 1127.58,713.78C1127.51,715.78 1127.36,717.67 1127.37,719.62C1127.45,754.007 1127.54,788.4 1127.65,822.8C1127.65,834.15 1127.87,845.49 1127.97,856.8C1127.97,858.39 1127.97,859.98 1127.83,861.57C1127.82,862.484 1127.06,863.231 1126.15,863.231C1126.13,863.231 1126.12,863.23 1126.1,863.23C1124.68,863.29 1123.27,863.23 1121.85,863.3L1100.61,863.53C1098.85,863.46 1097.08,863.33 1095.31,863.33L1061.81,863.33C1060.4,863.33 1058.98,863.28 1057.57,863.2C1057.57,863.2 1057.56,863.2 1057.56,863.2C1056.82,863.2 1056.21,862.591 1056.21,861.85C1056.21,861.85 1056.21,861.85 1056.21,861.85C1056.11,859.85 1056.07,857.95 1056.07,856L1056.07,437.13C1056.07,434.83 1055.92,432.53 1055.84,430.23C1055.92,425.23 1055.99,420.31 1056.08,415.35C1056.08,413.94 1056.08,412.52 1056.2,411.1C1056.21,410.364 1056.8,409.756 1057.54,409.73C1059.12,409.62 1060.72,409.56 1062.31,409.56L1126.08,409.56C1127.67,409.56 1129.26,409.56 1130.84,409.37C1131.41,409.335 1131.85,408.86 1131.85,408.292C1131.85,408.132 1131.82,407.974 1131.75,407.83C1131.51,407.166 1131.17,406.539 1130.75,405.97C1129.82,404.67 1128.81,403.44 1127.89,402.13C1125.22,398.33 1125.39,397.81 1129.75,396.53C1135,394.919 1140.34,393.623 1145.75,392.65C1145.75,391.39 1144.84,391.23 1144.06,390.94C1137.66,388.55 1134.92,386.94 1130.42,382.94C1130.59,381.71 1131.71,382.1 1132.42,381.86C1133.1,381.654 1133.8,381.513 1134.5,381.44C1138,380.96 1141.5,380.56 1145.02,380C1146.76,379.727 1148.48,379.292 1150.14,378.7C1151.1,378.36 1151.75,377.447 1151.75,376.429C1151.75,375.984 1151.62,375.549 1151.39,375.17C1150.66,373.76 1149.71,372.46 1148.91,371.09C1148.2,369.9 1148.49,368.95 1149.71,368.6C1151.41,368.1 1153.14,367.69 1154.86,367.31C1167.5,364.428 1179.47,359.164 1190.13,351.8C1196.89,347.184 1202.65,341.252 1207.06,334.36C1209.65,330.36 1212.15,326.26 1214.71,322.22C1218.62,315.889 1222.97,309.835 1227.71,304.1C1232.66,298.041 1238.49,292.758 1245,288.43C1253.49,282.835 1263.47,279.924 1273.64,280.08C1277.79,280.13 1280.25,278.56 1282.29,275.29C1286.96,267.956 1292.12,260.941 1297.72,254.29C1307.35,242.452 1318.4,231.848 1330.63,222.72C1346.1,211.315 1364.23,204.051 1383.3,201.62C1392.82,200.421 1402.46,200.721 1411.88,202.51C1433.78,206.417 1454.42,215.5 1472.1,229C1477.13,232.923 1481.93,237.148 1486.45,241.65C1488.2,243.158 1489.59,245.041 1490.52,247.16C1484.24,246.61 1477.9,246.43 1472.05,243.65C1462.66,234.55 1451.73,227.74 1440.05,222.12C1421.62,213.07 1400.84,209.949 1380.57,213.19C1355.57,217.09 1335.4,229.91 1318.32,248.11L1315.74,250.72C1315,251.45 1313.53,251.84 1314.53,253.37L1314.53,253.3C1313.18,252.43 1312.66,253.7 1312.05,254.37C1304.63,262.647 1297.85,271.48 1291.77,280.79C1291.41,281.458 1291.11,282.153 1290.86,282.87C1294.09,284.21 1297.18,285.44 1300.22,286.78C1303.39,288.327 1306.34,290.269 1309.02,292.56C1309.95,294.44 1310.96,296.28 1311.78,298.21C1315.6,307.21 1320.57,315.33 1328.04,321.8C1329.35,322.94 1330.49,324.29 1331.71,325.55C1331.71,326.18 1331.91,326.75 1332.71,326.89L1332.66,326.84C1333.26,331.93 1333.95,337.01 1333.66,342.17C1333.01,354.71 1329.33,366.17 1321.66,376.17C1316.04,383.47 1308.74,388.75 1300.94,393.38C1285.56,402.49 1268.67,406.93 1251.06,408.58C1234.78,410.1 1218.5,409.21 1202.29,407.28C1190.52,405.817 1178.91,403.28 1167.6,399.7C1164.39,398.574 1160.87,398.728 1157.77,400.13C1155.21,401.357 1152.48,402.19 1149.67,402.6C1148.07,402.742 1146.55,403.351 1145.29,404.35C1144.19,405.313 1143.79,406.864 1144.29,408.24C1144.64,409.5 1145.83,409.52 1146.91,409.53C1148.5,409.53 1150.09,409.53 1151.69,409.58C1158.24,409.69 1164.8,409.63 1171.34,409.94C1182.5,410.301 1193.57,412.088 1204.27,415.26C1223.54,421.26 1239.17,432.26 1250.06,449.5C1252.06,452.424 1253.82,455.512 1255.3,458.73C1256.3,461.462 1258.79,463.39 1261.68,463.68C1263.08,463.888 1264.49,464.022 1265.9,464.08C1268.2,464.14 1270.51,464.08 1272.81,464.08C1273.13,467.713 1273.14,471.366 1272.84,475ZM1164.69,627.24C1171.01,628.16 1177.37,627.78 1183.69,627.64C1188.45,627.54 1189.49,626.36 1190.1,621.64C1190.19,620.94 1190.23,620.23 1190.26,619.52C1190.6,610.52 1191.01,601.52 1191.26,592.46C1191.52,582.91 1191.6,573.35 1191.78,563.79C1192.06,551.932 1191.49,540.068 1190.09,528.29C1188.27,513.623 1180.41,503.92 1166.5,499.18C1159.65,496.731 1152.39,495.677 1145.13,496.08C1141.42,495.96 1137.72,495.76 1134.01,495.75C1127.55,495.75 1128.01,495.34 1128.01,501.82L1128.01,624.98C1128.13,626.98 1128.53,627.31 1130.66,627.42C1131.9,627.48 1133.14,627.42 1134.38,627.42L1159.3,627.42C1161.16,627.47 1162.92,627.32 1164.69,627.24Z" style="fill:rgb(237,67,81);fill-rule:nonzero;"/>
    </g>
    <g transform="matrix(1,0,0,1,-533.81,-48.68)">
        <path d="M638.24,489.55C636.91,491.72 636.6,494.22 636.09,496.63C632.23,514.57 634.53,531.84 641.96,548.51C646.368,558.002 652.017,566.866 658.76,574.87C665.097,582.51 671.917,589.734 679.18,596.5C690.62,607.35 702.23,618.01 713.68,628.85C724.333,638.739 734.094,649.548 742.85,661.15C751.828,673.03 759.102,686.106 764.46,700C768.435,710.816 771.061,722.081 772.28,733.54C773.815,748.359 773.725,763.301 772.01,778.1C770.455,794.204 765.474,809.79 757.4,823.81C749.328,837.895 737.266,849.281 722.74,856.53C721.48,857.17 720.25,857.86 719,858.53C715.174,859.269 711.429,860.381 707.82,861.85C698.171,865.402 688.016,867.387 677.74,867.73C670.486,868.06 663.22,868.02 655.97,867.61C642.863,866.982 629.957,864.124 617.81,859.16C604.456,853.748 592.784,844.872 584,833.45C571.54,817.29 565.24,798.72 562.59,778.7C561.47,770.24 561.42,761.7 561.32,753.23C561.32,751.29 561.57,749.33 560.97,747.42C561.79,742.49 561.3,737.52 561.43,732.57C561.63,725.33 560.73,726.16 568.1,726.15L622.29,726.15C623.88,726.15 625.48,726.15 627.07,726.23C627.084,726.23 627.097,726.229 627.111,726.229C628.005,726.229 628.741,726.965 628.741,727.859C628.741,727.876 628.741,727.893 628.74,727.91C628.82,729.32 628.82,730.74 628.82,732.16C628.82,741.02 628.76,749.88 628.87,758.75C628.844,764.779 629.488,770.793 630.79,776.68C631.817,781.181 633.669,785.453 636.25,789.28C640.32,795.28 645.71,799.28 652.82,800.83C659.25,802.23 665.71,803.23 672.27,801.65C679.7,802.14 685.65,798.93 690.78,793.96C695.35,789.54 698.08,783.96 699.91,777.96C702.91,768.08 702.91,757.96 701.63,747.91C699.47,730.23 692.2,714.61 681.35,700.62C675.811,693.698 669.867,687.11 663.55,680.89C650.73,667.89 636.89,655.96 623.63,643.42C614.318,634.69 605.58,625.367 597.47,615.51C574.26,587.08 563.03,554.4 562.84,517.81C562.737,504.503 564.211,491.23 567.23,478.27C570.11,465.96 574.4,454.17 581.89,443.76C583.258,442.134 584.279,440.245 584.89,438.21C598.417,421.503 617.58,410.285 638.77,406.67C651.272,404.171 664.05,403.344 676.77,404.21C686.71,404.86 696.51,406.05 706.06,408.87C727.44,415.2 744.57,427.27 756.27,446.54C762.64,457 766.5,468.33 769,480.2C770.73,488.71 771.863,497.331 772.39,506C772.85,512.9 773.2,519.8 773.2,526.71L773.2,530.44C773.21,530.517 773.215,530.594 773.215,530.672C773.215,531.675 772.389,532.502 771.385,532.502C771.36,532.502 771.335,532.501 771.31,532.5C770.07,532.57 768.83,532.56 767.59,532.56L749.53,532.56C748.29,532.56 747.06,532.75 745.83,532.85C744.07,532.75 742.31,532.57 740.54,532.57L708.65,532.57C706.29,532.47 706,532.2 705.98,529.65C705.98,526.65 706.04,523.65 706.08,520.65C706.265,514.264 705.975,507.873 705.21,501.53C704.12,493.32 701.85,485.59 696.53,479.02C694.257,476.043 691.224,473.731 687.75,472.33C676.75,468.2 665.69,467.45 654.52,471.55C645.88,474.63 640.1,480.34 638.24,489.55Z" style="fill:rgb(237,67,81);fill-rule:nonzero;"/>
    </g>
    <g transform="matrix(1,0,0,1,-533.81,-48.68)">
        <path d="M802.94,747.36C803.067,741.88 803.2,736.393 803.34,730.9C803.34,729.83 803.4,728.77 803.49,727.72C803.501,726.984 804.068,726.366 804.8,726.29C805.676,726.188 806.558,726.142 807.44,726.15L866.44,726.15C867.15,726.15 867.86,726.15 868.56,726.23C868.567,726.23 868.574,726.23 868.582,726.23C869.476,726.23 870.212,726.966 870.212,727.86C870.212,727.883 870.211,727.907 870.21,727.93C870.29,729.52 870.3,731.12 870.28,732.71C870.1,743.35 870.41,753.97 871.09,764.59C871.37,769.007 872.04,773.391 873.09,777.69C876.09,789.77 883.62,797.51 895.47,800.99C901.8,802.85 908.26,803.66 914.8,801.99C926.26,800.99 934.15,794.87 939.32,784.91C942.419,778.701 944.165,771.904 944.44,764.97C944.787,758.769 944.452,752.548 943.44,746.42C941.18,732.6 936.82,719.62 928.84,707.99C924.637,701.834 920.013,695.976 915,690.46C906.27,680.89 896.7,672.17 887.18,663.41C874.53,651.77 861.93,640.07 850.4,627.28C840.338,616.291 831.404,604.321 823.73,591.55C818.255,582.42 814.078,572.572 811.32,562.29C808.638,551.817 806.822,541.141 805.89,530.37C804.171,512.692 805.387,494.851 809.49,477.57C812.75,464.02 817.7,451.18 826.38,440.05C826.839,439.306 827.224,438.519 827.53,437.7C828.073,437.256 828.584,436.775 829.06,436.26C839.9,422.89 853.93,414.32 870.12,409.14C887.74,403.5 905.79,402.21 924.12,404.24C935.918,405.457 947.496,408.28 958.53,412.63C976.32,419.75 989.7,431.87 999.2,448.41C1005.34,459.12 1009.08,470.72 1011.41,482.78C1013.42,493.039 1014.55,503.449 1014.81,513.9C1014.92,518.5 1015.16,523.1 1015.31,527.7C1015.33,528.764 1015.3,529.829 1015.21,530.89C1015.17,531.781 1014.42,532.492 1013.53,532.492C1013.5,532.492 1013.48,532.491 1013.45,532.49C1012.04,532.58 1010.62,532.56 1009.2,532.56L990.62,532.56C989.742,532.61 988.867,532.71 988,532.86C986.06,532.75 984.12,532.56 982.19,532.56L951.38,532.56C947.9,532.56 947.83,532.4 947.72,528.99L947.72,526.33C947.65,517.82 947.41,509.33 946.64,500.84C946.292,497.136 945.568,493.477 944.48,489.92C942.284,482.32 936.922,476.021 929.77,472.64C923.061,469.353 915.604,467.887 908.15,468.39C894.37,469.07 884.62,476.39 880.06,489.68C877.54,494.88 876.76,500.5 876.39,506.16C875.06,526.34 880.39,544.74 891.28,561.65C897.627,571.262 904.902,580.229 913,588.42C922.47,598.25 932.58,607.42 942.6,616.68C951.72,625.1 960.73,633.68 969.27,642.68C979.567,653.456 988.572,665.396 996.1,678.26C1006.41,695.921 1012.8,715.593 1014.85,735.94C1017.17,757.855 1015.3,780.013 1009.34,801.23C1005.71,814.057 999.433,825.981 990.91,836.23C984.316,844.163 976.191,850.687 967.02,855.41C965.3,856.32 963.59,857.25 961.87,858.17C958.97,858.29 956.4,859.57 953.87,860.7C944.35,864.91 934.25,866.7 924.01,867.49C909.887,868.681 895.668,868.008 881.72,865.49C873.017,863.907 864.529,861.309 856.43,857.75C836.61,848.9 823.95,833.06 814.56,814.31C807.48,800.17 805.27,784.68 804.1,769.07C803.55,761.86 803.31,754.61 802.94,747.36Z" style="fill:rgb(237,67,81);fill-rule:nonzero;"/>
    </g>
    <g transform="matrix(1,0,0,1,-533.81,-48.68)">
        <path d="M1272.84,475C1273.12,471.381 1273.09,467.744 1272.75,464.13C1273.09,457.589 1273.02,451.033 1272.54,444.5C1272.24,440.45 1272.32,436.36 1272.28,432.29C1272.28,432.242 1272.27,432.193 1272.27,432.144C1272.27,431.124 1273.11,430.284 1274.13,430.284C1274.18,430.284 1274.23,430.286 1274.28,430.29C1275.34,430.23 1276.41,430.24 1277.47,430.23L1299.24,430.17C1299.99,432.42 1299.64,434.74 1299.64,437.03L1299.64,856.03C1299.64,857.97 1299.64,859.92 1299.79,861.86C1299.79,861.86 1299.79,861.86 1299.79,861.86C1299.79,862.601 1300.4,863.21 1301.14,863.21C1301.14,863.21 1301.15,863.21 1301.15,863.21C1302.56,863.28 1303.98,863.33 1305.39,863.33L1331.39,863.33C1333.16,863.33 1334.93,863.46 1336.69,863.53C1336.69,869.38 1336.81,875.23 1336.79,881.08C1336.79,884.41 1336.58,884.53 1333.05,884.63L1330.93,884.63L1277.78,884.63L1274.59,884.63C1272.88,884.53 1272.31,884.03 1272.21,882.46C1272.13,881.22 1272.15,879.98 1272.15,878.73C1272.15,827.49 1271.81,776.23 1272.43,724.99C1272.92,684.39 1272.69,643.79 1272.87,603.19C1273.05,562.76 1272.96,522.33 1272.98,481.89C1273,479.55 1272.91,477.25 1272.84,475Z" style="fill:rgb(95,202,243);fill-rule:nonzero;"/>
    </g>
    <g transform="matrix(1,0,0,1,-533.81,-48.68)">
        <path d="M1055.9,430.22C1055.98,432.52 1056.13,434.82 1056.13,437.12L1056.13,855.99C1056.13,857.99 1056.13,859.89 1056.27,861.84C1056.27,861.84 1056.27,861.84 1056.27,861.84C1056.27,862.581 1056.88,863.19 1057.62,863.19C1057.62,863.19 1057.63,863.19 1057.63,863.19C1059.04,863.27 1060.46,863.32 1061.87,863.32L1095.37,863.32C1097.14,863.32 1098.91,863.45 1100.67,863.52C1100.67,869.37 1100.78,875.22 1100.75,881.06C1100.75,884.42 1100.55,884.53 1097.03,884.62L1094.9,884.62L1035.39,884.62C1033.98,884.62 1032.56,884.62 1031.15,884.51C1031.14,884.51 1031.14,884.51 1031.13,884.51C1030.21,884.51 1029.45,883.76 1029.44,882.84C1029.37,881.78 1029.44,880.72 1029.44,879.66C1029.54,872.03 1029.73,864.41 1029.72,856.79C1029.72,839.06 1029.5,821.34 1029.49,803.61L1029.49,437.7C1029.49,429.14 1028.49,430.25 1037.24,430.19C1043.5,430.16 1049.7,430.21 1055.9,430.22Z" style="fill:rgb(95,202,243);fill-rule:nonzero;"/>
    </g>
    <g transform="matrix(1,0,0,1,-533.81,-48.68)">
        <path d="M827.5,437.7C827.194,438.519 826.809,439.306 826.35,440.05C817.67,451.18 812.72,464.05 809.46,477.57C805.357,494.851 804.141,512.692 805.86,530.37C806.792,541.141 808.608,551.817 811.29,562.29C814.048,572.572 818.225,582.42 823.7,591.55C831.374,604.321 840.308,616.291 850.37,627.28C861.9,640.07 874.5,651.77 887.15,663.41C896.67,672.17 906.24,680.89 914.97,690.46C919.991,695.959 924.626,701.8 928.84,707.94C936.84,719.57 941.18,732.55 943.44,746.37C944.452,752.498 944.787,758.719 944.44,764.92C944.165,771.854 942.419,778.651 939.32,784.86C934.15,794.86 926.26,800.98 914.8,801.94C914.34,799.03 915.46,796.31 916.03,793.58C919.15,778.71 917.11,764.37 911.87,750.36C906.63,736.35 898.29,724 888.3,712.77C878.97,702.3 868.47,693.07 858.22,683.56C846.67,672.83 834.95,662.28 824.22,650.69C812.03,637.49 801.36,623.18 793.3,607.06C786.317,593.304 781.616,578.504 779.38,563.24C777.771,552.738 777.171,542.106 777.59,531.49C778.69,509.1 783.65,487.7 794.72,468C801.08,456.69 809.43,447.22 820.72,440.61C822.89,439.37 824.88,437.8 827.5,437.7Z" style="fill:rgb(95,202,243);fill-rule:nonzero;"/>
    </g>
    <g transform="matrix(1,0,0,1,-533.81,-48.68)">
        <path d="M584.89,438.21C584.279,440.245 583.258,442.134 581.89,443.76C574.4,454.17 570.11,465.96 567.23,478.27C564.211,491.23 562.737,504.503 562.84,517.81C563.03,554.4 574.26,587.08 597.47,615.51C605.58,625.367 614.318,634.69 623.63,643.42C636.89,655.96 650.73,667.88 663.55,680.89C669.867,687.11 675.811,693.698 681.35,700.62C692.2,714.62 699.47,730.23 701.63,747.91C702.87,757.97 702.91,768.08 699.91,777.96C698.08,783.96 695.35,789.53 690.78,793.96C685.65,798.96 679.7,802.14 672.27,801.65C673.68,794.89 675.21,788.14 675.27,781.2C675.359,769.65 673.078,758.204 668.57,747.57C663.88,736.15 657.16,725.96 649.31,716.51C640.12,705.43 629.78,695.51 619.11,685.86C612,679.45 605.11,672.78 597.99,666.41C591.309,660.325 584.966,653.879 578.99,647.1C567.44,634.26 557.37,620.38 549.91,604.72C544.765,593.812 541.096,582.267 539,570.39C536.25,555.383 535.243,540.108 536,524.87C537.06,503.44 542.64,483.29 554.28,465.08C560.275,455.606 568.227,447.522 577.6,441.37C579.88,439.91 582.15,438.51 584.89,438.21Z" style="fill:rgb(95,202,243);fill-rule:nonzero;"/>
    </g>
    <g transform="matrix(1,0,0,1,-533.81,-48.68)">
        <path d="M1363.94,657.51C1363.85,655.51 1363.68,653.62 1363.68,651.67L1363.68,541.01C1363.68,540.53 1363.51,539.88 1364.15,539.71C1365.06,539.48 1365.35,540.26 1365.59,540.89C1366.32,542.503 1366.91,544.176 1367.35,545.89C1370.35,561.38 1375.62,576.3 1379.48,591.58C1383.48,607.58 1387.74,623.47 1392.02,639.37C1403.71,682.81 1415.32,726.27 1427.28,769.63C1432.51,788.63 1437.83,807.5 1442.45,826.63C1443.82,832.31 1445.76,837.84 1447.36,843.46C1448.53,847.54 1449.58,851.66 1450.67,855.77C1450.81,856.28 1450.87,856.77 1451,857.33C1452.38,862.82 1453,863.33 1458.57,863.33L1494.18,863.33C1495.59,863.33 1497,863.47 1498.41,863.54C1498.41,869.54 1498.47,875.6 1498.41,881.63C1498.41,884.04 1497.96,884.42 1495.65,884.53C1494.59,884.59 1493.52,884.53 1492.46,884.53L1429.21,884.53C1425.46,884.46 1425.28,884.45 1424.49,880.97C1422.26,871.13 1419.55,861.41 1416.67,851.73C1410.51,831.03 1405,810.14 1399.38,789.28C1395.15,773.56 1391.14,757.77 1386.86,742.06C1380.44,718.48 1374.7,694.73 1367.57,671.35C1366.22,666.78 1365.16,662.12 1363.94,657.51Z" style="fill:rgb(95,202,243);fill-rule:nonzero;"/>
    </g>
    <g transform="matrix(1,0,0,1,-533.81,-48.68)">
        <path d="M802.94,747.36C803.31,754.61 803.55,761.86 804.09,769.09C805.26,784.7 807.47,800.19 814.55,814.33C823.94,833.08 836.6,848.92 856.42,857.77C864.519,861.329 873.007,863.927 881.71,865.51C895.658,868.028 909.877,868.701 924,867.51C934.24,866.73 944.34,864.93 953.86,860.72C956.43,859.59 959,858.31 961.86,858.19C961.24,860.35 959.61,861.76 958.11,863.25C947.42,873.86 934.55,880.66 920.11,884.65C905.28,888.868 889.858,890.621 874.46,889.84C858.46,888.96 842.9,885.74 828.46,878.58C807.69,868.33 793.16,852.29 784.91,830.64C781.825,822.155 779.636,813.371 778.38,804.43C776.48,792.48 776.28,780.43 776.24,768.43L776.24,751.43C776.24,747.59 776.39,747.43 780.07,747.43C787.71,747.35 795.33,747.38 802.94,747.36Z" style="fill:rgb(95,202,243);fill-rule:nonzero;"/>
    </g>
    <g transform="matrix(1,0,0,1,-533.81,-48.68)">
        <path d="M560.94,747.42C561.54,749.33 561.26,751.29 561.29,753.23C561.39,761.74 561.44,770.23 562.56,778.7C565.21,798.7 571.56,817.29 583.97,833.45C592.757,844.891 604.441,853.781 617.81,859.2C629.967,864.167 642.882,867.025 656,867.65C663.25,868.06 670.516,868.1 677.77,867.77C688.046,867.427 698.201,865.442 707.85,861.89C711.45,860.422 715.184,859.31 719,858.57C718.43,861.82 716,863.7 713.7,865.63C702.15,875.386 688.435,882.244 673.7,885.63C665.115,887.795 656.303,888.936 647.45,889.03C641.45,889.03 635.4,889.2 629.39,888.9C612.39,888.03 596.13,884.22 581.18,875.82C565.219,867.028 552.596,853.21 545.28,836.52C540.405,825.5 537.041,813.871 535.28,801.95C534.337,796.54 533.839,791.061 533.79,785.57C533.9,774.22 533.86,762.88 533.88,751.57C533.88,750.86 533.88,750.15 533.94,749.45C533.938,749.416 533.937,749.381 533.937,749.347C533.937,748.305 534.795,747.447 535.837,747.447C535.871,747.447 535.906,747.448 535.94,747.45C538.77,747.4 541.61,747.39 544.44,747.39L560.94,747.42Z" style="fill:rgb(95,202,243);fill-rule:nonzero;"/>
    </g>
    <g transform="matrix(1,0,0,1,-533.81,-48.68)">
        <path d="M1331.72,325.54C1330.5,324.28 1329.36,322.93 1328.05,321.79C1320.58,315.32 1315.61,307.17 1311.79,298.2C1310.97,296.27 1309.96,294.43 1309.03,292.55C1309.49,290.658 1309.49,288.682 1309.03,286.79C1308.22,283.183 1307.98,279.471 1308.33,275.79C1308.68,268.53 1309.75,261.43 1314.1,255.29C1314.53,254.721 1314.69,253.987 1314.53,253.29L1314.53,253.36C1315.95,252.94 1316.39,252.08 1315.74,250.71L1318.32,248.1C1320.09,249.04 1321.32,247.86 1322.63,247.01C1328.56,243.126 1335.23,240.517 1342.22,239.35C1347.94,238.279 1353.75,237.694 1359.57,237.6C1372.46,237.6 1385.35,237.32 1398.24,238.19C1407.92,238.84 1417.65,238.85 1427.35,239.39C1436.88,239.93 1446.35,240.89 1455.76,242.33C1461.13,243.16 1466.55,244.33 1472.08,243.64C1477.93,246.42 1484.27,246.64 1490.55,247.15C1496.91,248.66 1503.16,250.46 1508.89,253.73C1515.81,257.73 1521.37,262.87 1524.61,270.32C1525.93,273.21 1526.78,276.297 1527.1,279.46C1528.1,291.05 1527.27,302.38 1521.91,313C1519.46,316.35 1517.39,320 1514.34,322.91C1513.8,323.598 1513.38,324.363 1513.07,325.18C1510.42,326.149 1507.88,327.378 1505.47,328.85C1503.95,329.738 1502.37,330.517 1500.74,331.18C1493.64,333.904 1485.94,334.674 1478.45,333.41C1469.33,332.155 1460.73,328.376 1453.64,322.5C1449.19,318.77 1444.98,314.69 1442.88,309.01C1445.64,307.694 1448.55,306.688 1451.53,306.01C1452.97,306.62 1454.18,307.666 1455,309C1458.88,314.344 1464.3,318.375 1470.53,320.55C1473.7,321.641 1476.97,322.441 1480.29,322.94C1487.67,324.199 1495.27,322.96 1501.87,319.42C1504.87,317.854 1507.45,315.603 1509.41,312.85C1513.5,307.25 1516.06,300.68 1516.85,293.79C1517.59,288.353 1517.18,282.821 1515.66,277.55C1514.61,273.956 1512.63,270.703 1509.92,268.12C1506.42,264.846 1502.3,262.318 1497.79,260.69C1490.65,257.86 1483.17,256.54 1475.63,255.5C1468.8,254.55 1461.95,253.75 1455.1,252.99C1446.5,251.99 1437.89,250.99 1429.26,250.3C1423.1,249.79 1416.89,249.67 1410.71,249.37C1397.46,248.74 1384.17,249.02 1370.91,248.22C1364.37,247.927 1357.81,248.154 1351.3,248.9C1343.87,249.498 1336.64,251.629 1330.08,255.16C1324.98,257.844 1321.25,262.573 1319.83,268.16C1317.41,277.334 1318.17,287.062 1321.98,295.75C1330.16,315.08 1345.69,324.17 1365.98,325.59C1374.86,326.21 1383.13,323.32 1390.62,318.59C1404.46,309.77 1412.98,297.59 1413.43,280.71C1413.57,275.26 1416.43,272.56 1420.51,271.43C1425.5,270.184 1430.71,270.054 1435.76,271.05C1437.67,271.428 1439.53,272.008 1441.32,272.78C1444.05,273.86 1445.65,275.87 1445.48,278.91C1445.27,282.67 1446.22,286.31 1446.41,290.02C1446.53,292.31 1447.98,294.4 1447.41,296.79C1443.4,295.828 1439.51,294.422 1435.81,292.6C1435.71,290.12 1435.81,287.6 1435.48,285.18C1435.01,281.32 1434.66,281.1 1430.87,281.04L1426.1,281.04C1426.04,281.035 1425.98,281.032 1425.92,281.032C1424.88,281.032 1424.01,281.843 1423.93,282.88C1423.58,285.685 1423.07,288.467 1422.39,291.21C1415.63,314.05 1401.02,328.99 1377.74,334.9C1371.05,336.636 1364.05,336.837 1357.27,335.49C1350.17,334.069 1343.31,331.606 1336.93,328.18C1335.56,327.45 1334.35,326.18 1332.56,326.83L1332.61,326.88C1332.81,326.11 1332.26,325.83 1331.72,325.54Z" style="fill:rgb(95,202,243);fill-rule:nonzero;"/>
    </g>
    <g transform="matrix(1,0,0,1,-533.81,-48.68)">
        <path d="M638.24,489.55C640.1,480.34 645.88,474.63 654.46,471.48C665.63,467.38 676.71,468.13 687.69,472.26C691.164,473.661 694.197,475.973 696.47,478.95C701.79,485.52 704.06,493.25 705.15,501.46C705.915,507.803 706.205,514.194 706.02,520.58C706.02,523.58 705.9,526.58 705.92,529.58C705.92,532.13 706.23,532.4 708.59,532.5C709.83,532.56 711.07,532.5 712.31,532.5L740.48,532.5C742.25,532.5 744.01,532.68 745.77,532.78L745.77,549.28C745.772,550.165 745.728,551.049 745.64,551.93C745.567,552.846 744.789,553.558 743.87,553.55C742.99,553.63 742.1,553.64 741.21,553.64L683.21,553.64C678.55,553.64 678.54,553.58 678.53,548.89L678.53,530.27C678.532,524.054 677.518,517.879 675.53,511.99C675.36,511.49 675.24,510.99 675.06,510.47C670.9,499.06 662.59,492.8 650.83,490.63C646.71,489.94 642.46,490 638.24,489.55Z" style="fill:rgb(95,202,243);fill-rule:nonzero;"/>
    </g>
    <g transform="matrix(1,0,0,1,-533.81,-48.68)">
        <path d="M880,489.68C884.56,476.43 894.31,469.07 908.09,468.39C915.544,467.887 923.001,469.353 929.71,472.64C936.862,476.021 942.224,482.32 944.42,489.92C945.508,493.477 946.232,497.136 946.58,500.84C947.35,509.32 947.58,517.84 947.66,526.33L947.66,528.99C947.77,532.4 947.84,532.54 951.32,532.56L982.13,532.56C984.06,532.56 986,532.75 987.94,532.86L987.94,548.26C987.986,549.321 987.915,550.384 987.73,551.43C987.538,552.512 986.66,553.35 985.57,553.49C984.343,553.65 983.107,553.72 981.87,553.7L925.22,553.7L922.56,553.7C920.93,553.58 920.25,552.92 920.46,551.35C921.049,545.894 921.17,540.397 920.82,534.92C920.5,527.52 920.1,520.08 917.82,512.92C915.22,504.64 910.58,497.92 902.67,494C897.425,491.409 891.678,489.992 885.83,489.85L880,489.68Z" style="fill:rgb(95,202,243);fill-rule:nonzero;"/>
    </g>
    <g transform="matrix(1,0,0,1,-533.81,-48.68)">
        <path d="M1127.66,713.74C1127.58,707.56 1127.46,701.39 1127.43,695.21C1127.43,693.46 1127.91,693.01 1129.59,692.93C1131,692.86 1132.41,692.93 1133.83,692.93C1141.94,692.93 1150.07,693.1 1158.18,692.85C1168.76,692.54 1179.32,691.98 1189.77,690.05C1193.77,689.385 1197.7,688.347 1201.51,686.95C1204.14,685.95 1206.81,685.01 1209.51,684.1C1211.15,683.55 1212.79,682.77 1214.61,683.43C1214.81,684.85 1213.85,685.73 1213.06,686.65C1209.77,690.367 1205.96,693.581 1201.74,696.19C1189.76,703.761 1176.39,708.89 1162.42,711.28C1156.17,712.45 1149.85,713.191 1143.5,713.5C1139.63,713.64 1135.78,714.34 1131.88,714.2C1130.46,714.307 1129.03,714.151 1127.66,713.74Z" style="fill:rgb(95,202,243);fill-rule:nonzero;"/>
    </g>
    <g transform="matrix(1,0,0,1,-533.81,-48.68)">
        <path d="M1214.53,683.46C1214.24,682.58 1214.91,682.63 1215.43,682.53C1215.43,682.54 1215.43,682.55 1215.43,682.56C1215.43,683.054 1215.02,683.46 1214.53,683.46C1214.53,683.46 1214.53,683.46 1214.53,683.46Z" style="fill:rgb(95,202,243);fill-rule:nonzero;"/>
    </g>
    <g transform="matrix(1,0,0,1,-533.81,-48.68)">
        <path d="M1442.85,309C1444.95,314.68 1449.16,318.76 1453.61,322.49C1460.7,328.366 1469.3,332.145 1478.42,333.4C1485.91,334.664 1493.61,333.894 1500.71,331.17C1502.34,330.507 1503.92,329.728 1505.44,328.84C1507.85,327.368 1510.39,326.139 1513.04,325.17C1513.7,345.059 1509.02,364.767 1499.5,382.24C1495.11,390.37 1489.39,397.57 1483.5,404.62C1480.38,408.36 1476.5,410.39 1471.42,409.99C1469.14,409.81 1466.84,409.8 1464.54,409.8C1462.84,409.8 1462.42,410.25 1462.42,412.05C1462.42,413.85 1462.42,415.59 1462.54,417.35C1462.79,421.3 1461.05,424.08 1457.78,426.16C1456.02,427.29 1453.98,428.09 1452.78,429.99C1451.91,430.05 1451.05,430.16 1450.18,430.17L1438.7,430.17C1435.7,430.22 1435.15,430.56 1435.11,433.34C1434.91,435.76 1434.56,438.165 1434.05,440.54C1431.64,440.23 1429.58,441.25 1427.45,442.18C1421.45,444.78 1415.45,447.34 1409.34,449.78C1407.01,450.634 1404.64,451.352 1402.23,451.93C1402.03,452.01 1401.82,452.052 1401.61,452.052C1400.71,452.052 1399.97,451.311 1399.97,450.412C1399.97,450.405 1399.97,450.397 1399.97,450.39C1397.91,437.39 1392.74,425.21 1389.76,412.44C1389.17,409.88 1388.83,409.74 1386.08,409.65L1383.96,409.65L1304.76,409.65C1298.98,409.65 1299.43,409.31 1299.38,415.21C1299.38,420.21 1299.28,425.14 1299.22,430.1L1277.45,430.16C1276.39,430.16 1275.32,430.16 1274.26,430.22C1274.21,430.216 1274.16,430.214 1274.11,430.214C1273.09,430.214 1272.25,431.054 1272.25,432.074C1272.25,432.123 1272.26,432.172 1272.26,432.22C1272.26,436.29 1272.26,440.38 1272.52,444.43C1273,450.963 1273.07,457.519 1272.73,464.06C1270.43,464.06 1268.12,464.12 1265.82,464.06C1264.41,464.002 1263,463.868 1261.6,463.66C1258.7,463.37 1256.22,461.442 1255.22,458.71C1253.74,455.492 1251.98,452.404 1249.98,449.48C1239.09,432.2 1223.46,421.25 1204.19,415.24C1193.49,412.068 1182.42,410.281 1171.26,409.92C1164.72,409.61 1158.16,409.67 1151.61,409.56C1150.01,409.56 1148.42,409.56 1146.83,409.51C1145.75,409.51 1144.56,409.51 1144.21,408.22C1143.71,406.844 1144.11,405.293 1145.21,404.33C1146.47,403.331 1147.99,402.722 1149.59,402.58C1152.4,402.17 1155.13,401.337 1157.69,400.11C1160.79,398.708 1164.31,398.554 1167.52,399.68C1178.83,403.26 1190.44,405.797 1202.21,407.26C1218.42,409.19 1234.7,410.08 1250.98,408.56C1268.59,406.91 1285.48,402.47 1300.86,393.36C1308.66,388.73 1315.96,383.45 1321.58,376.15C1329.29,366.15 1332.97,354.68 1333.58,342.15C1333.85,336.99 1333.16,331.91 1332.58,326.82C1334.37,326.2 1335.58,327.44 1336.95,328.17C1343.33,331.596 1350.19,334.059 1357.29,335.48C1364.07,336.827 1371.07,336.626 1377.76,334.89C1401.04,328.98 1415.65,314.04 1422.41,291.2C1423.09,288.457 1423.6,285.675 1423.95,282.87C1424.03,281.833 1424.9,281.022 1425.94,281.022C1426,281.022 1426.06,281.025 1426.12,281.03C1427.71,281.03 1429.3,280.98 1430.89,281.03C1434.68,281.09 1435.03,281.31 1435.5,285.17C1435.8,287.62 1435.73,290.11 1435.83,292.59C1434.45,292.33 1433.08,292.01 1431.68,291.84C1430.88,291.74 1429.82,291.47 1429.55,292.65C1429.38,293.557 1429.87,294.468 1430.71,294.84C1431.77,295.461 1432.88,295.98 1434.04,296.39C1436.86,297.39 1439.73,298.26 1442.53,299.33C1444.43,300.06 1446.53,300.54 1448.23,301.97C1446.69,303.67 1444.62,303.67 1442.85,304.32C1439.38,305.59 1435.85,306.67 1432.38,308C1430.11,308.87 1429.14,310.35 1429.88,311.35C1430.97,312.82 1432.43,312.26 1433.74,311.88C1436.83,311 1439.83,310 1442.85,309Z" style="fill:white;fill-rule:nonzero;"/>
    </g>
    <g transform="matrix(1,0,0,1,-533.81,-48.68)">
        <path d="M1434.07,440.58C1434.58,438.205 1434.93,435.8 1435.13,433.38C1435.13,430.6 1435.67,430.26 1438.72,430.21C1442.55,430.15 1446.37,430.21 1450.2,430.21C1451.07,430.21 1451.93,430.09 1452.8,430.03C1455.45,430.13 1458.1,430.22 1460.8,430.34C1460.81,430.34 1460.83,430.339 1460.84,430.339C1461.74,430.339 1462.47,431.075 1462.47,431.969C1462.47,431.983 1462.47,431.997 1462.47,432.01C1462.56,433.25 1462.55,434.49 1462.55,435.73L1462.55,671.92C1462.55,673.29 1462.89,674.72 1462.19,676.02C1462.13,676.031 1462.07,676.036 1462.01,676.036C1461.52,676.036 1461.09,675.669 1461.02,675.18C1459.02,665.09 1455.14,655.52 1452.55,645.58C1447.04,624.5 1441.21,603.5 1435.55,582.47C1435.28,581.47 1435.13,580.4 1434.93,579.36C1434.93,578.12 1435.02,576.88 1435.02,575.64C1435.06,539.38 1435.1,503.113 1435.13,466.84C1435,464.899 1435.06,462.951 1435.29,461.02C1435.87,457.7 1435.49,454.282 1434.2,451.17C1435.55,447.76 1435.5,443.956 1434.07,440.58Z" style="fill:rgb(95,202,243);fill-rule:nonzero;"/>
    </g>
    <g transform="matrix(1,0,0,1,-533.81,-48.68)">
        <path d="M1164.69,627.24C1165.25,621.62 1165.82,616 1166.39,610.38C1166.39,609.86 1166.54,609.38 1166.57,608.81C1166.98,601.22 1167.49,593.64 1167.79,586.05C1168.47,568.92 1169.11,551.78 1168.79,534.63C1168.66,529.154 1167.99,523.704 1166.79,518.36C1166.19,515.776 1165.29,513.272 1164.1,510.9C1161.03,504.227 1155.17,499.233 1148.1,497.26C1147.1,496.96 1146,496.92 1145.19,496.11C1152.45,495.707 1159.71,496.761 1166.56,499.21C1180.49,503.963 1188.35,513.667 1190.15,528.32C1191.55,540.098 1192.12,551.962 1191.84,563.82C1191.66,573.38 1191.58,582.94 1191.32,592.49C1191.07,601.49 1190.66,610.49 1190.32,619.55C1190.32,620.26 1190.25,620.97 1190.16,621.67C1189.55,626.36 1188.51,627.54 1183.75,627.67C1177.37,627.78 1171,628.16 1164.69,627.24Z" style="fill:rgb(95,202,243);fill-rule:nonzero;"/>
    </g>
    <g transform="matrix(1,0,0,1,-533.81,-48.68)">
        <path d="M1472.05,243.64C1466.52,244.36 1461.05,243.16 1455.73,242.33C1446.29,240.89 1436.85,239.93 1427.32,239.39C1417.62,238.85 1407.89,238.84 1398.21,238.19C1385.32,237.32 1372.43,237.6 1359.54,237.6C1353.72,237.694 1347.91,238.279 1342.19,239.35C1335.2,240.514 1328.53,243.119 1322.6,247C1321.29,247.85 1320.06,249 1318.29,248.09C1335.37,229.89 1355.5,217.09 1380.54,213.17C1400.81,209.929 1421.6,213.05 1440.02,222.1C1451.73,227.73 1462.66,234.54 1472.05,243.64Z" style="fill:white;fill-rule:nonzero;"/>
    </g>
    <g transform="matrix(1,0,0,1,-533.81,-48.68)">
        <path d="M1314.54,253.29C1314.7,253.987 1314.54,254.721 1314.11,255.29C1309.76,261.43 1308.69,268.53 1308.34,275.79C1307.99,279.471 1308.23,283.183 1309.04,286.79C1309.5,288.682 1309.5,290.658 1309.04,292.55C1306.36,290.259 1303.41,288.317 1300.24,286.77C1297.24,285.43 1294.11,284.2 1290.88,282.86C1291.13,282.143 1291.43,281.448 1291.79,280.78C1297.87,271.47 1304.65,262.637 1312.07,254.36C1312.67,253.69 1313.19,252.42 1314.54,253.29Z" style="fill:white;fill-rule:nonzero;"/>
    </g>
    <g transform="matrix(1,0,0,1,-533.81,-48.68)">
        <path d="M1447.47,296.76C1448.02,294.37 1446.57,292.28 1446.47,289.99C1446.28,286.28 1445.33,282.64 1445.54,278.88C1445.71,275.88 1444.11,273.83 1441.38,272.75C1439.59,271.978 1437.73,271.398 1435.82,271.02C1430.77,270.024 1425.56,270.154 1420.57,271.4C1416.47,272.53 1413.63,275.23 1413.49,280.68C1413.04,297.56 1404.49,309.74 1390.68,318.56C1383.19,323.32 1374.92,326.21 1366.04,325.56C1345.74,324.14 1330.21,315.05 1322.04,295.72C1318.23,287.032 1317.47,277.304 1319.89,268.13C1321.31,262.543 1325.04,257.814 1330.14,255.13C1336.7,251.599 1343.93,249.468 1351.36,248.87C1357.87,248.124 1364.43,247.897 1370.97,248.19C1384.23,248.99 1397.52,248.71 1410.77,249.34C1416.95,249.64 1423.16,249.76 1429.32,250.27C1437.95,250.99 1446.56,251.99 1455.16,252.96C1462.01,253.72 1468.86,254.52 1475.69,255.47C1483.23,256.47 1490.69,257.83 1497.85,260.66C1502.36,262.288 1506.48,264.816 1509.98,268.09C1512.69,270.673 1514.67,273.926 1515.72,277.52C1517.25,282.791 1517.65,288.323 1516.91,293.76C1516.12,300.65 1513.56,307.22 1509.47,312.82C1507.51,315.573 1504.92,317.824 1501.93,319.39C1495.33,322.93 1487.73,324.169 1480.35,322.91C1477.03,322.411 1473.76,321.611 1470.59,320.52C1464.34,318.364 1458.9,314.343 1455,309C1454.18,307.63 1452.94,306.557 1451.47,305.94C1452.13,305.7 1452.81,305.49 1453.47,305.2C1454.6,304.74 1455.7,304.202 1456.76,303.59C1457.28,303.234 1457.58,302.646 1457.58,302.02C1457.58,301.394 1457.28,300.806 1456.76,300.45C1455.86,299.907 1454.91,299.452 1453.92,299.09C1451.78,298.29 1449.62,297.54 1447.47,296.76ZM1387,286.63C1386.93,285.22 1386.92,283.8 1386.75,282.4C1386.61,281.529 1386.38,280.674 1386.07,279.85C1383.61,272.432 1376.71,267.33 1368.9,267.15C1360.9,267.175 1353.71,272.172 1350.9,279.66C1348.68,285.77 1349.74,291.51 1353,296.91C1354.47,299.35 1356.25,299.79 1358.91,298.8C1359.25,298.663 1359.59,298.506 1359.91,298.33C1365.08,295.389 1371.43,295.389 1376.6,298.33C1380.72,300.53 1383.69,299.24 1385.49,294.91C1386.56,292.285 1387.08,289.465 1387,286.63ZM1481.47,296.89L1484.12,296.89C1489.78,297.14 1489.72,297.13 1491.26,291.82C1492.13,288.924 1492.43,285.89 1492.16,282.88C1491.9,279.108 1490.02,275.629 1486.99,273.36C1483.6,270.469 1478.46,270.79 1475.45,274.08C1472.8,276.747 1471.18,280.264 1470.86,284.01C1470.44,287.84 1471.58,291.35 1472.92,294.86C1473.33,296.259 1474.72,297.152 1476.16,296.94C1478,296.84 1479.72,296.89 1481.49,296.89L1481.47,296.89Z" style="fill:white;fill-rule:nonzero;"/>
    </g>
    <g transform="matrix(1,0,0,1,-533.81,-48.68)">
        <path d="M1447.47,296.76C1449.62,297.54 1451.78,298.29 1453.92,299.12C1454.91,299.482 1455.86,299.937 1456.76,300.48C1457.28,300.836 1457.58,301.424 1457.58,302.05C1457.58,302.676 1457.28,303.264 1456.76,303.62C1455.7,304.232 1454.6,304.77 1453.47,305.23C1452.83,305.52 1452.15,305.73 1451.47,305.97C1448.49,306.648 1445.58,307.654 1442.82,308.97C1439.82,309.97 1436.82,310.97 1433.75,311.82C1432.44,312.2 1430.98,312.76 1429.89,311.29C1429.15,310.29 1430.12,308.81 1432.39,307.94C1435.85,306.61 1439.39,305.53 1442.86,304.26C1444.63,303.61 1446.7,303.61 1448.24,301.91C1446.5,300.48 1444.44,300 1442.54,299.27C1439.74,298.2 1436.87,297.35 1434.05,296.33C1432.89,295.92 1431.78,295.401 1430.72,294.78C1429.88,294.408 1429.39,293.497 1429.56,292.59C1429.83,291.41 1430.89,291.68 1431.69,291.78C1433.09,291.95 1434.46,292.27 1435.84,292.53C1439.55,294.368 1443.45,295.787 1447.47,296.76Z" style="fill:rgb(237,67,81);fill-rule:nonzero;"/>
    </g>
    <g transform="matrix(1,0,0,1,-533.81,-48.68)">
        <path d="M1387,286.63C1387.07,289.47 1386.55,292.294 1385.46,294.92C1383.66,299.25 1380.69,300.54 1376.57,298.34C1371.4,295.399 1365.05,295.399 1359.88,298.34C1359.56,298.516 1359.22,298.673 1358.88,298.81C1356.22,299.81 1354.44,299.36 1352.97,296.92C1349.71,291.52 1348.65,285.78 1350.87,279.67C1353.68,272.182 1360.87,267.185 1368.87,267.16C1376.68,267.34 1383.58,272.442 1386.04,279.86C1386.36,280.684 1386.58,281.539 1386.72,282.41C1386.94,283.8 1387,285.22 1387,286.63Z" style="fill:rgb(237,67,81);fill-rule:nonzero;"/>
    </g>
    <g transform="matrix(1,0,0,1,-533.81,-48.68)">
        <path d="M1481.49,296.89C1479.72,296.89 1477.95,296.84 1476.18,296.89C1474.74,297.102 1473.35,296.209 1472.94,294.81C1471.6,291.3 1470.46,287.81 1470.88,283.96C1471.2,280.214 1472.82,276.697 1475.47,274.03C1478.48,270.74 1483.62,270.419 1487.01,273.31C1490.04,275.579 1491.92,279.058 1492.18,282.83C1492.45,285.84 1492.15,288.874 1491.28,291.77C1489.74,297.08 1489.8,297.09 1484.14,296.84L1481.49,296.84L1481.49,296.89Z" style="fill:rgb(237,67,81);fill-rule:nonzero;"/>
    </g>
</svg>
