<svg width="2048" height="2048" viewBox="0 0 2048 2048" fill="none" xmlns="http://www.w3.org/2000/svg">
<path d="M1512 531.254C1518.24 533.874 1524.77 536.001 1530.65 539.395C1536.83 542.962 1542.49 547.736 1549.3 550C1546.69 538.541 1545.33 527.833 1545.85 516.023C1546.17 508.469 1547.34 500.877 1549.89 493.763C1558.2 470.61 1579.95 456.335 1602.91 451.002C1635.72 443.381 1668.66 446.061 1701.98 446.881C1714.43 447.188 1726.89 447.748 1739.28 448.053C1758.38 448.524 1777.39 448.99 1796.39 451.25C1816.54 453.648 1837.07 454.73 1857 458.615C1850.22 449.15 1838.82 441.863 1829.07 435.723C1815.34 427.066 1802.14 419.141 1787.07 413.013C1769.22 405.759 1750.45 399.77 1731.12 397.891C1655.27 390.512 1590.1 429.722 1543.7 487.905C1532.98 501.351 1519.27 515.544 1512 531.254Z" fill="white"/>
<path d="M1659.68 404.043C1659.15 404.562 1660.39 404.497 1660.44 404.433C1660.97 403.913 1659.73 403.979 1659.68 404.043ZM1547.17 549.556C1552.48 557.289 1554.77 566.544 1559.45 574.694C1570.77 594.399 1586.36 610.527 1606.86 620.558C1674.31 653.568 1762.06 604.455 1763.64 527.379H1784.59C1784.59 533.749 1787 543.975 1784.59 549.556C1792.22 553.091 1800.59 555.886 1809.03 556.56C1807.94 547.96 1805.49 539.47 1804.57 530.881C1804.08 526.283 1805.6 520.169 1803.2 516.015C1800.88 512.023 1795.79 510.798 1791.77 509.45C1780.18 505.567 1757.44 504.565 1747.72 513.44C1742.31 518.378 1744.61 530.081 1743.26 536.717C1740.4 550.735 1734.45 564.052 1725.56 575.235C1713.17 590.808 1695.94 603.566 1676.35 608.485C1633.62 619.218 1588.45 594.402 1571.84 554.225C1563.06 532.973 1561.41 502.96 1578.7 485.464C1589.96 474.067 1609.53 468.456 1625.15 466.884C1648.49 464.533 1671.65 466.093 1694.98 466.666C1737.69 467.716 1780.74 468.546 1823 474.656C1851.79 478.819 1885.24 479.335 1911.45 493.173C1919.05 497.186 1926.12 502.461 1930.69 509.871C1949.31 540.093 1934.75 594.297 1898.64 604.127C1880.98 608.94 1858.87 606.863 1842.78 597.466C1837.54 594.404 1832.09 590.032 1828.14 585.406C1824.94 581.643 1821.12 575.569 1815.97 574.486C1810.48 573.334 1803.68 577.068 1798.56 578.737C1800.65 587.887 1807.73 595.405 1814.19 601.905C1835.51 623.371 1871.81 632.247 1900.97 624.716C1939.66 614.728 1958 577.899 1958 540.219C1958 525.311 1956.34 510.905 1947.77 498.199C1935.15 479.46 1913.36 468.921 1891.66 464.564C1881.93 462.61 1865.73 463.518 1857.91 457.346C1836.08 458.314 1813.39 451.955 1791.57 450.447C1746.67 447.345 1701.63 445.674 1656.57 445.674C1622.79 445.674 1583.41 447.397 1559.7 475.292C1546.88 490.39 1545.91 509.739 1546.01 528.546C1546.04 534.894 1549.64 543.849 1547.17 549.556ZM1874.2 446.841L1875.37 448.008L1874.2 446.841Z" fill="#5DCAF4"/>
<path d="M1817.04 571.677C1831.22 604.972 1884.87 617.172 1913.78 597.239C1935.84 582.021 1943.95 545.349 1936.04 520.58C1925.73 488.342 1888.5 485.323 1860.16 479.712C1832.26 474.187 1803.36 472.471 1775.08 470.542C1735.16 467.816 1695.1 466 1655.03 466C1636.36 466 1618.06 466.926 1600.26 472.971C1591.28 476.018 1582.52 479.601 1576.17 486.948C1563.34 501.785 1563.34 523.427 1567.38 541.483C1576.65 582.954 1613.09 609.999 1655.03 609.999C1663.27 609.999 1671.56 610.124 1679.51 607.568C1702.31 600.238 1722.56 584.764 1733.99 563.547C1738.44 555.292 1742.26 545.015 1743.4 535.677C1744.11 529.832 1742.75 520.188 1746.64 515.377C1754.42 505.797 1771.21 507.429 1782.07 507.828C1785.15 507.941 1787.68 508.731 1790.56 509.71C1794.8 511.145 1799.63 512.396 1802.4 516.242C1805.15 520.07 1804.07 525.452 1804.27 529.871C1804.58 536.916 1805.72 550.042 1809.38 556.122C1812.7 561.623 1823.97 560.143 1825.96 566.071C1827.51 570.685 1819.81 571.426 1817.04 571.677Z" fill="white"/>
<path d="M1653.18 501.675C1632.03 506.157 1619.03 526.887 1625.8 547.665C1627.22 552.031 1629.01 556.978 1632.59 560.09C1637.49 564.363 1642.54 559.44 1647.35 557.541C1653.46 555.131 1662.07 554.865 1668.33 556.886C1672.55 558.249 1677.67 562.869 1682.29 561.856C1692.89 559.531 1694.29 542.005 1693.92 533.687C1693.04 513.813 1673.2 497.43 1653.18 501.675ZM1857.12 556.984C1867.59 556.767 1875.95 555.729 1886.25 558.148C1891.67 544.87 1896.07 528.763 1885.8 516.265C1884.27 514.419 1882.46 512.802 1880.42 511.566C1863.6 501.418 1850.7 522.374 1851.41 537.181C1851.76 544.227 1854.66 550.537 1857.12 556.984Z" fill="#ED4250"/>
<path d="M1633.84 510L1635 511.188L1633.84 510ZM1513 527.812L1514.16 529L1513 527.812Z" fill="#5DCAF4"/>
<path d="M1763.26 527C1761 579.552 1715.67 626.442 1663.07 630.675C1636.12 632.844 1612.32 623.479 1589.69 609.793C1592.16 626.613 1594.92 642.898 1591.42 659.936C1583.31 699.435 1552.77 728.392 1517.46 744.87C1466.2 768.797 1409.77 771.969 1354.38 765.067C1336.05 762.783 1317.44 760.395 1299.63 755.317C1288.65 752.188 1275.79 745.678 1264.68 749.834C1258.11 752.291 1251.62 754.179 1244.88 756.052C1242.34 756.755 1238.39 757.349 1236.81 759.711C1235.22 762.059 1236.41 765.806 1236.72 768.383C1289.49 768.383 1343.14 768.292 1389.32 797.941C1405.77 808.5 1420.63 822.096 1431.65 838.349C1435.99 844.765 1440.3 851.314 1443.93 858.173C1445.72 861.536 1446.95 866.177 1450.35 868.297C1453.3 870.129 1457.09 869.718 1460.38 869.879C1466.25 870.165 1471.95 871 1477.86 871V808.031H1529.11V768.383H1698.02C1698.95 775.278 1701.68 781.512 1703.4 788.207C1708.59 808.35 1714.8 828.479 1718.99 848.844C1734.66 847.272 1751 838.254 1765.59 832.59C1770.73 830.59 1779.7 828.372 1783.02 823.613C1785.64 819.859 1784.22 812.408 1784.22 808.031C1799.32 808.031 1811.95 809.648 1824.99 801.03C1828.33 798.829 1833.15 796.544 1834.78 792.657C1837.51 786.135 1835.48 775.402 1835.48 768.383C1844.32 768.383 1857.39 770.818 1865.66 767.522C1869.62 765.945 1872.6 761.985 1875.42 758.95C1882.25 751.61 1888.71 743.956 1894.48 735.75C1920.8 698.33 1931 654.997 1931 609.793C1919.81 614.041 1910.51 621.957 1898.38 624.515C1859.42 632.732 1817.13 614.926 1798.2 579.475C1794.52 580.027 1791.25 581.216 1787.72 582.368C1784.57 583.394 1779.59 585.803 1776.27 585.233C1770.85 584.307 1776.35 579.583 1778.42 578.538C1788.66 573.376 1801.43 572.683 1811.02 566.647C1803.36 561.56 1792.95 558.993 1784.22 556.185C1778.46 554.331 1773.65 553.425 1772.57 546.824C1777.37 547.043 1781.82 548.46 1786.55 549.156C1784.82 541.572 1784.22 534.787 1784.22 527H1763.26ZM1267.01 725.237C1285.02 728.968 1302.6 735.293 1320.6 739.361C1344.77 744.824 1370.42 747.393 1395.15 747.393C1407.44 747.393 1420.18 748.362 1432.43 747.195C1459.36 744.627 1484.75 737.401 1509.31 726.283C1533.56 715.301 1556.21 698.26 1566.48 672.763C1575.58 650.179 1574.73 622.337 1564.08 600.464C1543.98 559.17 1492.48 533.128 1448.73 551.881C1400 572.778 1385.17 631.583 1348.55 665.662C1335.11 678.175 1318.69 687.677 1301.96 695.08C1294.49 698.384 1281.92 699.956 1275.86 705.383C1273.66 707.364 1273.87 710.934 1273.02 713.576C1271.67 717.802 1268.94 721.309 1267.01 725.237Z" fill="white"/>
<path d="M1773 547C1773.57 554.188 1778.6 554.72 1784.68 556.741C1793.7 559.747 1802.9 562.792 1811.53 566.821C1805.82 569.347 1799.93 570.562 1794.02 572.387C1790.83 573.366 1787.8 574.805 1784.68 575.942C1781.58 577.066 1777.21 578.051 1774.93 580.59C1773.11 582.612 1773.89 585.683 1776.77 585.967C1780.2 586.307 1784.91 583.918 1788.18 582.906C1797.46 580.025 1806.65 576.511 1815.86 573.393C1819.01 572.328 1826.87 571.073 1827 566.791C1827.1 563.142 1822.33 562.129 1819.7 561.154C1811.65 558.165 1803.05 556.171 1795.18 552.898C1788.14 549.968 1780.67 547.164 1773 547Z" fill="#ED4250"/>
<path d="M1826.83 568L1828 569.2L1826.83 568ZM1773 584.8L1774.17 586L1773 584.8Z" fill="#5DCAF4"/>
<path d="M1947.28 586C1944.86 590.595 1942.59 595.492 1939.21 599.471C1936.54 602.611 1932.45 605.233 1931.34 609.386C1930.27 613.365 1931.1 618.007 1930.92 622.088C1930.51 631.277 1930.13 640.963 1928.55 650.027C1922.58 683.987 1909.93 716.018 1888.33 743.158C1882.2 750.854 1874.58 762.839 1865.62 767.414C1857.83 771.388 1844.03 768.769 1835.43 768.769C1835.43 775.511 1837.64 787.014 1834.23 793.001C1830.38 799.749 1820.61 802.325 1815.62 808.349H1835.43C1835.43 962.351 1834.16 1116.72 1835.43 1270.51H1833.1C1831.62 1255.67 1824.95 1240.61 1820.97 1226.27C1813.9 1200.74 1807.44 1174.97 1800.22 1149.44C1782.75 1087.7 1767.07 1025.27 1750.69 963.179C1742.4 931.821 1731.37 900.595 1724.74 868.884C1735.19 867.967 1745.29 862.541 1755.03 858.9C1763.4 855.775 1773.05 853.409 1780.49 848.301C1785.41 844.931 1784.37 838.095 1784.14 832.802C1784.05 830.647 1784.02 827.5 1781.46 826.761C1777 825.475 1768.55 831.243 1764.36 832.867C1749.77 838.52 1734.39 846.434 1718.92 849.094C1715.23 821.807 1703.51 795.66 1697.94 768.769H1529V1620.91H1650.17V1009.74C1654.43 1017.81 1655.91 1026.62 1658.19 1035.35L1668.17 1073.44C1677.3 1108.14 1687.31 1142.67 1696.32 1177.38C1700.09 1191.88 1705.47 1206.11 1709.06 1220.65C1728.98 1301.2 1752.22 1381.24 1773.67 1461.43C1781.24 1489.74 1789.07 1518.02 1796.37 1546.41C1798.88 1556.14 1802.55 1565.71 1804.72 1575.51C1807.13 1586.43 1810.46 1597.25 1813.29 1608.11C1814.2 1611.59 1814.5 1617.37 1817.6 1619.71C1819.86 1621.41 1823.47 1620.91 1826.11 1620.91H1845.91H1923.98C1931.34 1620.91 1938.75 1621.12 1946.12 1620.89C1949.25 1620.8 1952.83 1620.67 1953.9 1617.15C1956.14 1609.85 1954.27 1599.42 1954.27 1591.81V1538.26V1358.98V768.769H1894.85C1905.56 753.62 1916.94 739.759 1925.95 723.368C1940.22 697.389 1946.5 668.65 1949.95 639.55C1951.49 626.475 1951.88 611.88 1950.1 598.805C1949.49 594.351 1949.41 590.013 1947.28 586Z" fill="#ED4250"/>
<path d="M268.303 1363.47H141.391C141.391 1393.64 139.896 1424.33 142.753 1454.36C147.514 1504.4 166.65 1553.44 204.463 1587.43C221.904 1603.1 242.855 1612.34 264.81 1619.63C283.629 1625.88 302.273 1627.91 321.862 1629.25C374.354 1632.85 431.066 1624.07 473.219 1590.17C503.43 1565.87 521.803 1530.94 531.53 1493.98C537.078 1472.9 538.69 1451.53 539.636 1429.89C541.429 1388.93 536.58 1347.1 521.051 1308.71C504.796 1268.52 478.665 1232.62 448.727 1201.51C417.857 1169.42 383.6 1140.94 352.134 1109.45C322.716 1080.01 295.47 1046.65 284.13 1005.75C277.264 980.984 276.389 953.802 282.575 928.844C284.491 921.114 286.856 912.418 291.218 905.644C307.12 880.94 339.612 876.025 366.106 882.726C375.252 885.039 384.095 888.236 390.89 895.205C417.17 922.161 412.679 965.303 412.679 999.923H539.591C539.591 928.764 534.183 849.525 475.553 800.016C446.597 775.565 410.337 763.296 373.092 759.688C314.354 754 252.081 761.891 205.627 801.704C181.145 822.686 163.436 854.756 155.273 885.731C137.221 954.221 140.427 1032.02 171.233 1096.64C186.57 1128.81 209.922 1158.63 234.183 1184.5C267.408 1219.93 305.751 1250.33 339.508 1285.32C366.212 1313 391.811 1345.06 401.155 1383.28C408.67 1414.03 410.468 1453.45 392.598 1481.16C378.021 1503.77 348.893 1508.78 324.19 1505.82C311.078 1504.24 298.147 1500.18 288.783 1490.29C269.022 1469.39 268.303 1442.92 268.303 1415.91V1363.47ZM722.39 1363.47H596.643C596.643 1390.09 594.931 1417.33 596.746 1443.87C600.212 1494.5 617.427 1547.88 655.053 1583.48C688.647 1615.26 733.571 1626.19 778.278 1629.25C836.275 1633.22 900.126 1621.22 942.344 1577.83C951.937 1567.97 960.244 1556.02 967.047 1544.08C974.567 1530.89 980.961 1515.66 984.849 1500.97C1000.27 1442.73 1000.57 1376.35 980.241 1319.2C964.224 1274.16 935.668 1234.31 902.524 1200.28C871.138 1168.06 836.508 1139.25 805.04 1107.12C775.573 1077.04 749.109 1043.85 738.41 1002.25C730.652 972.087 729.852 930.815 747.806 903.927C769.529 871.396 827.311 871.878 851.284 901.212C864.229 917.052 865.955 938.374 866.812 957.975C867.426 971.978 867.931 985.855 867.931 999.923H994.843C994.843 926.59 988.203 847.263 927.266 797.174C909.026 782.181 886.981 772.654 864.438 766.384C802.4 749.126 723.517 754.218 670.666 793.88C639.255 817.451 618.876 852.769 609.138 890.393C597.337 935.987 597.559 984.186 605.584 1030.22C608.229 1045.4 611.51 1061.3 617.318 1075.66C635.351 1120.25 664.711 1159.04 697.985 1193.36C755.322 1252.49 835.79 1302.28 856.899 1386.78C864.246 1416.19 864.849 1456.28 847.089 1482.28C824.764 1514.96 766.682 1515.09 741.141 1486.99C727.477 1471.96 724.775 1451.56 723.451 1432.22C721.885 1409.37 722.39 1386.41 722.39 1363.47Z" fill="#ED4250"/>
<path d="M1784.75 807.652C1784.75 813.725 1785.44 819.686 1782.42 825.139C1785.48 830.883 1786.52 840.71 1782.42 846.123C1786.06 852.69 1784.75 860.969 1784.75 868.273V914.904C1784.75 972.275 1782.63 1030.1 1784.77 1087.42C1784.98 1093 1787.44 1098.35 1788.72 1103.76C1791.49 1115.5 1794.96 1127.08 1798.22 1138.73C1806.46 1168.09 1813.41 1197.94 1821.54 1227.33C1825.49 1241.57 1831.2 1255.88 1833.67 1270.47H1836V807.652H1784.75ZM1021.76 807.652V1375.39V1560.74C1021.76 1593.7 1024.71 1628.31 1020.59 1661H1155.72V1621.36H1071.84V807.652H1021.76ZM1478.38 807.652L1479.55 881.096L1478.38 1661H1599.53V1621.36H1529.64V807.652H1478.38ZM642.008 820.476C593.893 841.012 568.4 891.43 556.42 939.385C543.575 990.807 545.113 1050.86 561.737 1101.43C576.038 1144.93 601.597 1184.22 632.386 1217.81C661.982 1250.1 695.352 1278.73 727.147 1308.75C746.392 1326.94 765.073 1346.09 779.624 1368.39C799.355 1398.63 812.471 1433.1 810.869 1469.81C810.327 1482.22 807.582 1493.86 805.09 1505.95C811.731 1505.89 817.673 1504.27 823.728 1501.53C860.625 1484.8 866.634 1435.89 859.271 1399.87C857.988 1393.59 857.562 1387.39 855.628 1381.21C852.81 1372.23 850.563 1362.99 846.574 1354.4C826.612 1311.41 789.755 1278.68 755.594 1247.14C714.337 1209.03 673.531 1171.11 642.841 1123.73C632.141 1107.21 621.705 1088.75 615.618 1069.95C597.091 1012.73 593.876 948.814 609.392 890.424C613.709 874.175 620.038 857.193 628.435 842.626C631.169 837.882 634.388 833.104 637.563 828.636C639.528 825.87 642.129 823.904 642.008 820.476ZM349.625 1505.95C378.654 1505.28 397.096 1482.15 402.968 1455.82C412.07 1415.02 401.907 1372.7 381.553 1336.91C370.426 1317.35 354.795 1300.57 339.323 1284.45C305.927 1249.68 268.161 1219.37 234.788 1184.67C210.014 1158.91 186.369 1128.01 170.969 1095.6C145.816 1042.67 139.081 980.705 147.287 923.064C150.961 897.263 158.413 871.792 170.089 848.459C174.776 839.096 182.202 831.187 186.543 821.642C179.629 822.977 173.581 827.276 167.905 831.314C155.755 839.962 145.103 850.27 135.977 862.065C100.013 908.553 88.8339 973.785 94.3205 1031.48C96.6083 1055.53 99.4657 1078.14 106.594 1101.43C123.213 1155.74 159.776 1202.22 199.899 1241.32C262.524 1302.36 348.821 1360.49 355.345 1455.82C356.511 1472.86 353.39 1489.48 349.625 1505.95Z" fill="#5DCAF4"/>
<path d="M286 919.613C296.033 919.613 306.556 919.727 316.263 922.609C322.708 924.523 329.346 926.896 334.882 930.777C367.877 953.908 361.658 1004.85 361.658 1039.73H488.53V1000.08H412.872C412.872 965.561 418.091 919.495 390.226 893.539C383.765 887.521 375.778 884.888 367.477 882.786C337.522 875.202 291.733 882.632 286 919.613ZM739.946 919.613C744.931 920.459 749.993 919.371 755.077 919.717C764.787 920.38 775.519 923.206 784.159 927.754C823.124 948.268 816.767 1002.94 816.767 1039.73H911.049C918.808 1039.73 926.569 1039.78 934.328 1039.73C936.899 1039.71 940.633 1040.15 942.443 1037.86C944.538 1035.21 943.64 1030.04 943.64 1026.9V1000.08H867.982C867.982 985.612 867.493 971.332 866.863 956.931C866.075 938.881 864.798 918.569 853.787 903.39C835.098 877.627 789.069 871.422 762.556 888.866C750.99 896.475 745.058 907.144 739.946 919.613ZM1206.7 889.293V930.109C1227.43 930.109 1251.01 929.682 1266.35 946.481C1284.31 966.156 1283.52 995.02 1283.52 1019.9C1283.52 1072.22 1281.33 1134.81 1274.79 1186.67C1280.25 1186.65 1282.93 1189 1306.8 1189C1311.23 1187.49 1307.48 1189.28 1311.45 1186.67C1331.39 1173.55 1330.69 1134.78 1334.04 1113.2C1335.52 1103.67 1334.73 1093.66 1334.73 1084.04V1033.9V980.254C1334.73 970.667 1335.59 960.604 1334.23 951.1C1332.94 942.046 1331.36 932.944 1328.31 924.295C1326.72 919.813 1324.26 915.532 1321.35 911.45C1313.78 903.287 1308.1 897.595 1297.48 893.719C1284.52 888.984 1270.39 889.293 1256.75 889.293H1206.7Z" fill="#5DCAF4"/>
<path fill-rule="evenodd" clip-rule="evenodd" d="M1247.5 698.319C1246.05 696.322 1244.66 694.401 1244.11 692.769C1248.72 691.204 1253.51 690.142 1258.31 689.081C1263.35 687.964 1268.39 686.847 1273.23 685.143C1297.55 676.573 1322.21 664.535 1340.67 646.082C1350.32 636.432 1357.66 624.51 1364.89 612.776C1367.14 609.118 1369.38 605.478 1371.68 601.931C1384.26 582.507 1398.42 563.327 1416.47 548.664C1428.63 538.795 1443.95 530.414 1459.56 527.731C1460.87 527.506 1462.18 527.265 1463.5 527.022C1468.75 526.059 1474.07 525.08 1479.36 525.078C1480.34 525.078 1481.36 525.159 1482.38 525.241C1485.59 525.498 1488.85 525.759 1491.39 523.489C1494.2 520.966 1496.34 517.5 1498.43 514.101C1499.57 512.248 1500.71 510.414 1501.93 508.765C1503.42 506.747 1504.9 504.721 1506.39 502.693C1513.63 492.823 1520.91 482.906 1528.86 473.629C1554.71 443.518 1583.59 416.841 1619.11 398.489C1626.59 394.623 1634.93 391.745 1643.06 388.943C1645.19 388.208 1647.3 387.478 1649.39 386.737C1712.11 364.391 1781.33 383.067 1835.92 416.777C1849.78 425.332 1862.05 435.62 1873.95 446.663C1874.77 447.426 1875.61 448.182 1876.44 448.938C1881.5 453.523 1886.57 458.122 1889.29 464.511C1886.71 464.434 1884.41 463.856 1882.06 463.269C1880.61 462.905 1879.15 462.538 1877.6 462.285C1875.68 461.972 1873.62 461.807 1871.54 461.639C1866.95 461.269 1862.2 460.887 1858.34 458.898C1852.91 456.107 1848.06 451.864 1843.22 447.634C1839.63 444.487 1836.04 441.347 1832.23 438.818C1814.59 427.109 1796.33 416.424 1776.33 409.248C1761.42 403.9 1744.43 399.325 1728.58 398.233C1705.68 396.656 1682.11 398.174 1659.87 404.451C1596.09 422.445 1547.22 477.369 1511.96 530.892C1524.11 534.558 1540.74 540.837 1548.67 551.289C1550.52 553.727 1551.53 556.579 1552.54 559.432C1553.02 560.803 1553.51 562.175 1554.09 563.5C1556.78 569.67 1560.2 575.505 1563.88 581.125C1567.75 587.032 1572.24 593.594 1577.27 598.553C1578.51 599.777 1579.87 600.952 1581.24 602.137C1584.74 605.169 1588.32 608.268 1590.22 612.43C1593.53 619.659 1593.51 629.41 1593.49 637.483C1593.49 638.064 1593.49 638.636 1593.49 639.198C1593.47 669.598 1580.73 700.187 1557.38 720.22C1509.26 761.508 1442.81 771.604 1381.53 767.406C1358.44 765.824 1335.44 764.041 1312.82 758.42C1309.79 757.667 1306.75 756.964 1303.72 756.262C1298.58 755.073 1293.45 753.886 1288.36 752.459C1286.93 752.058 1285.44 751.55 1283.9 751.029C1280.01 749.706 1275.88 748.306 1272.06 748.395C1268.37 748.481 1264.62 750.105 1260.95 751.694C1258.8 752.629 1256.67 753.553 1254.59 754.143C1253.44 754.472 1251.95 754.744 1250.32 755.041C1245.41 755.937 1239.25 757.059 1237.36 760.666C1236.45 762.395 1236.72 764.739 1236.96 766.812C1237.02 767.391 1237.09 767.949 1237.12 768.467L1238.74 768.467C1291.35 768.464 1344.78 768.46 1390.85 797.987C1407.33 808.552 1421.83 822.032 1432.77 838.342C1436.83 844.388 1440.87 850.534 1444.28 856.975C1444.77 857.909 1445.23 858.922 1445.69 859.954C1447.13 863.149 1448.64 866.519 1451.65 868.25C1457.18 871.423 1467.33 871.193 1474.97 871.02C1476.56 870.983 1478.05 870.95 1479.36 870.95V891.912C1474.99 891.822 1470.67 891.235 1466.34 890.648C1463.31 890.236 1460.28 889.824 1457.23 889.583C1469.06 926.589 1468.98 964.853 1468.89 1003.2C1468.88 1006.48 1468.88 1009.75 1468.88 1013.03C1468.88 1021.34 1468.97 1029.87 1469.06 1038.54C1469.92 1119.59 1470.92 1213.14 1399 1264.87C1347.94 1301.6 1284.84 1301.18 1224.49 1300.77C1218.19 1300.72 1211.91 1300.68 1205.68 1300.68L1206.84 1620.94H1071.75V768.467H1216.16C1214.5 764.622 1211.95 761.346 1209.41 758.092C1206.54 754.409 1203.69 750.755 1202.19 746.34C1205.97 745.408 1209.89 744.297 1213.88 743.167C1223.17 740.536 1232.81 737.806 1241.78 737.023V734.694C1231.52 733.351 1216.68 724.282 1209.17 717.225C1211.08 716.983 1212.99 716.747 1214.9 716.511C1223.5 715.447 1232.07 714.386 1240.62 712.857C1241.02 712.785 1241.47 712.715 1241.95 712.639C1245.46 712.091 1250.76 711.261 1251.63 707.646C1252.29 704.939 1249.82 701.531 1247.5 698.319ZM1206.84 1178.25V930.417C1209.77 930.417 1212.71 930.399 1215.67 930.381C1236.21 930.254 1257.48 930.122 1276.32 936.03C1306.8 945.587 1319.13 965.41 1322.73 986.268C1327.48 1013.75 1326.98 1042.25 1326.5 1070.31C1326.35 1078.81 1326.21 1087.27 1326.21 1095.64C1326.21 1115.53 1325.31 1136.37 1324.42 1156.15C1324.4 1156.66 1324.38 1157.28 1324.36 1157.98C1324.21 1163.6 1323.91 1174.33 1319.08 1177.67C1313.52 1178.58 1302.54 1178.43 1294.59 1178.31C1292.36 1178.28 1290.36 1178.25 1288.79 1178.25H1206.84Z" fill="#ED4250"/>
<path d="M1650.62 1010V1158.99V1206.71C1650.62 1215.05 1649.67 1224.08 1651 1232.32C1654.06 1251.13 1660.36 1269.94 1665.72 1288.19C1671.03 1306.25 1675.43 1324.71 1680.34 1342.89C1700.65 1418.12 1719.95 1493.67 1741 1568.7C1749.53 1599.1 1759.54 1629.73 1765.94 1660.65H1903.4V1621.08H1842.82C1836.59 1621.08 1824.2 1623.44 1818.85 1619.88C1815.59 1617.71 1815.18 1612.91 1814.32 1609.44C1812.38 1601.7 1810.8 1593.71 1808.23 1586.16C1796.08 1550.47 1789.68 1512.82 1778.71 1476.75C1763.29 1426.03 1751.38 1374.25 1737.11 1323.11C1721.01 1265.38 1704.88 1207.7 1689.91 1149.68C1681.1 1115.48 1672.17 1080.98 1662 1047.25C1658.5 1035.62 1658.01 1019.87 1650.62 1010ZM1780.31 1073.63C1780.25 1073.69 1780.18 1074.92 1780.7 1074.41C1780.76 1074.34 1780.83 1073.11 1780.31 1073.63ZM1467.74 1112.43V1115.92C1468.55 1114.11 1468.55 1114.24 1467.74 1112.43ZM1205.65 1300.99L1206.81 1340.56C1250.21 1340.56 1291.27 1335.86 1330.29 1315.64C1344.99 1308.02 1364.17 1296.24 1372.22 1281.2C1355.64 1284.15 1340.2 1293.34 1323.3 1296.11C1284.41 1302.48 1244.97 1300.99 1205.65 1300.99ZM89.7076 1403.42C89.7076 1429.22 88.0477 1455.66 89.8125 1481.4C93.0624 1528.84 107.492 1580.83 141.266 1615.91C180.25 1656.41 234.333 1669.97 288.899 1669.97C315.622 1669.97 342.625 1667.16 368.11 1658.59C387.319 1652.13 405.721 1643.02 421.588 1630.27C428.103 1625.04 435.583 1619.45 439.166 1611.77C424.586 1614.35 410.695 1621.63 396.066 1624.78C367.752 1630.89 337.455 1631.81 308.702 1629.03C290.206 1627.24 271.455 1622.36 253.999 1616.14C241.738 1611.78 229.739 1605.38 219.007 1598.13C174.22 1567.85 150.681 1516.31 143.62 1463.94C140.917 1443.89 140.962 1423.64 140.962 1403.42H89.7076ZM545.169 1403.42C545.169 1475.23 541.796 1554.31 593.131 1611.77C646.769 1671.79 739.865 1681.53 814.252 1661.68C837.075 1655.59 860.006 1644.6 878.163 1629.39C884.722 1623.9 891.82 1618.29 895.792 1610.6C885.613 1612.91 875.536 1618.2 865.506 1621.45C852.734 1625.58 838.028 1627.86 824.735 1629.11C770.136 1634.17 708.424 1626.12 664.286 1591.01C648.727 1578.63 638.136 1562.71 627.037 1546.59C617.566 1532.83 611.057 1516.16 606.771 1500.03C598.201 1467.76 596.422 1436.63 596.422 1403.42H545.169ZM1953.1 1620.3C1952.58 1620.82 1953.81 1620.75 1953.87 1620.69C1954.39 1620.17 1953.16 1620.24 1953.1 1620.3Z" fill="#5DCAF4"/>
</svg>
